<?xml version="1.0" encoding="utf-8"?>
<!-- Generator: Adobe Illustrator 27.4.1, SVG Export Plug-In . SVG Version: 6.00 Build 0)  -->
<svg version="1.1" id="Слой_1" xmlns="http://www.w3.org/2000/svg" xmlns:xlink="http://www.w3.org/1999/xlink" x="0px" y="0px"
	 viewBox="0 0 708.66 498.9" style="enable-background:new 0 0 708.66 498.9;" xml:space="preserve">
<style type="text/css">
	.st0{fill:#486848;}
</style>
<g>
	<g>
		<g transform="scale(8,8)">
			<path class="st0" d="M-6.89-5.4c-0.44,0-0.81,0.36-0.81,0.81v1.13c0,0.44,0.36,0.81,0.81,0.81h1.13c0.44,0,0.81-0.36,0.81-0.81
				v-1.13c0-0.44-0.36-0.81-0.81-0.81H-6.89z M-6.89-5.15h1.13c0.31,0,0.56,0.25,0.56,0.56v1.13c0,0.31-0.25,0.56-0.56,0.56h-1.13
				c-0.31,0-0.56-0.25-0.56-0.56v-1.13C-7.45-4.9-7.2-5.15-6.89-5.15z M-5.59-4.88c-0.06,0-0.11,0.05-0.11,0.11s0.05,0.11,0.11,0.11
				s0.11-0.05,0.11-0.11S-5.53-4.88-5.59-4.88z M-6.33-4.77c-0.41,0-0.75,0.34-0.75,0.75s0.34,0.75,0.75,0.75s0.75-0.34,0.75-0.75
				S-5.91-4.77-6.33-4.77z M-6.33-4.52c0.28,0,0.5,0.22,0.5,0.5s-0.22,0.5-0.5,0.5s-0.5-0.22-0.5-0.5S-6.6-4.52-6.33-4.52z"/>
		</g>
	</g>
	<g transform="scale(8,8)">
		<path class="st0" d="M42.97,31.72c0,0.44,0.37,0.81,0.81,0.81l1.13,0c0.44,0,0.81-0.37,0.81-0.81l0-1.13
			c0-0.44-0.37-0.81-0.81-0.81l-1.13,0c-0.44,0-0.81,0.37-0.81,0.81L42.97,31.72z M43.22,31.72l0-1.13c0-0.31,0.25-0.56,0.56-0.56
			l1.13,0c0.31,0,0.56,0.25,0.56,0.56l0,1.13c0,0.31-0.25,0.56-0.56,0.56l-1.13,0C43.47,32.28,43.22,32.03,43.22,31.72z M43.5,30.41
			c0,0.06,0.05,0.11,0.11,0.11s0.11-0.05,0.11-0.11c0-0.06-0.05-0.11-0.11-0.11S43.5,30.35,43.5,30.41z M43.6,31.15
			c0,0.41,0.34,0.75,0.75,0.75c0.41,0,0.75-0.34,0.75-0.75c0-0.41-0.34-0.75-0.75-0.75S43.6,30.74,43.6,31.15z M43.85,31.15
			c0-0.28,0.22-0.5,0.5-0.5s0.5,0.22,0.5,0.5s-0.22,0.5-0.5,0.5C44.07,31.65,43.85,31.43,43.85,31.15z"/>
	</g>
</g>
</svg>
