<?xml version="1.0" encoding="utf-8"?>
<!-- Generator: Adobe Illustrator 27.4.1, SVG Export Plug-In . SVG Version: 6.00 Build 0)  -->
<svg version="1.1" id="Слой_1" xmlns="http://www.w3.org/2000/svg" xmlns:xlink="http://www.w3.org/1999/xlink" x="0px" y="0px"
	 viewBox="0 0 228.3 196" style="enable-background:new 0 0 228.3 196;" xml:space="preserve">
<style type="text/css">
	.st0{display:none;}
	.st1{display:inline;fill:#FFFFFF;stroke:#000000;stroke-miterlimit:10;}
	.st2{display:inline;fill:none;}
	.st3{fill:#486848;}
	.st4{fill:#FFFFFF;}
</style>
<g id="Слой_1_00000021827687445134573340000000146180530638537112_" class="st0">
	<path class="st1" d="M142,48.1"/>
	<path class="st1" d="M93.7,40.7c7.7-43.3,7.7-43.3,7.7-43.3l13.5-27.9l19.7-16.4l21.7,19.2L169.6-3l5.8,38l3.9,18.3l-9.6,20.2
		L150.5,86h-13.9l-24.5-3.9L99.4,69.6l-1.2-2.1L93.7,59v-2.4V40.7L93.7,40.7z"/>
	<polyline class="st1" points="136.5,13.5 134.5,90.6 135.5,121.3 243,121.3 27.4,121.3 	"/>
	<path class="st1" d="M116.8,43.8"/>
</g>
<g id="Слой_2_00000098919951342404730010000006484171265965474452_" class="st0">
	
		<image style="display:inline;overflow:visible;enable-background:new    ;" width="1024" height="1024" xlink:href="70DEFF72.jpeg"  transform="matrix(0.5127 0 0 0.4939 -155.6725 -118.6872)">
	</image>
</g>
<g id="Слой_3" class="st0">
	<path class="st2" d="M143.6,91.6c4-0.2,9.4-1,15.3-3.7c6.5-3,10.5-6.9,13.1-9.5c2.2-2.2,4.9-4.9,7.3-9.2c1.3-2.3,3.5-6.8,4.5-14
		c0.6-4.3,0.7-9.2-2.6-26.7c-3.1-16.3-5.9-25.9-7-29.6c-3.5-11.8-5.6-15.9-6.8-18.1c-2.7-4.9-5.2-8.1-10.4-14.4
		c-9.3-11.5-12.4-12.3-13.8-12.5c-4.8-0.9-9.1,1.3-11.9,2.8c-2.8,1.4-5.5,3.4-9.8,8.2c-3.9,4.4-9.4,10.7-13.8,20.8
		c-1.2,2.9-2.7,9-5.5,21.1c-2.6,11.1-3.9,16.9-5.2,24.5c-1.6,9.3-2.3,14-2.1,19c0.2,6,0.6,14.4,5.8,22.6
		c6.9,10.9,17.9,14.7,22.3,16.2C131.6,92.1,139.2,92,143.6,91.6z"/>
	<path class="st2" d="M130.8,84.9c2.7,0.4,6.6,1.2,11.6,1c3.4-0.1,10.4-0.5,18-4.7c2.5-1.4,9.6-5.4,14.1-13.8
		c3.3-6.2,3.7-11.8,4-17.4c0.2-4.2,0.1-9.9-3.7-26.6c-3.1-13.9-4.7-20.9-8.2-29.7C161.3-19.5,156-26.4,154.7-28
		c-4.4-5.6-4.6-3.8-10.4-10.7c-1.2-1.4-2.2-2.7-4-3.1c-2.9-0.5-5.6,2.1-8.9,5.5c-6.1,6.4-9.1,9.6-11.6,13.4
		c-5.4,8.3-8.1,15.5-10.1,21.1c-4.5,12.3-6.1,22.1-7.3,29.4c-0.4,2.3-1.8,11.1-1.8,22.6c0,6.9,0.5,11.1,2.4,15.6
		c2,4.5,4.7,7.5,6.1,8.9c3.7,3.7,7.4,5.4,10.4,6.7C129.9,86.2,88,77.8,130.8,84.9z"/>
	<path class="st2" d="M137.5,65.7c-4.2-4.8-8.9-9.6-14.4-14.4c-1.3-1.2-2.7-2.3-4-3.4c0.1-0.7,0.3-3.3,1.5-3.7
		c0.9-0.2,1.7,0.7,3.7,2.5c3.7,3.4,2.8,2.2,4.9,4.3c5.1,5.1,6.2,8,7.3,7.6c1-0.3,1.2-2.9,1.2-6.7c0-7.1-0.4-11.6-0.6-15.6
		c-0.9-14.8,1.2-14.7-0.3-19.6c-0.3-0.9-1-3.1,0-4.3c0.9-1,2.8-1.1,4-0.3c0.8,0.5,1.4,1.5,1.5,6.1c0.1,4.1-0.1,8.3-0.3,11
		c-0.2,3.8-0.4,5.3,0.2,5.5c1,0.3,2.9-3.5,6.2-5.5c0.7-0.4,1.4-0.8,2.4-1c0.8-0.1,2.2-0.2,2.6-0.2h0.5c0.6,1.5,0.5,2.7,0.3,3.4
		c-0.2,3.1-4.9,5.8-8.6,8c-1.1,0.6-2.4,1.3-3.1,2.8c-0.8,1.6-0.4,3.2-0.3,3.7c2.3,11.5-0.6,23.4-0.6,35.2c0,20.9-0.2,21,0.3,23.2
		c0.9,3.8,0.6,7.8,0.9,11.6c0.2,1.7,0.4,3.7-0.9,4.9c-1.1,1-3.1,1.2-4.3,0.3c-1-0.8-0.9-2.1-0.9-5.5c0-2.8-0.1-5.5,0-8.2
		c0-2.1,0-4.3,0-8.6c0-5.5-0.2-9.3-0.3-11C136.4,83,136.4,75.9,137.5,65.7"/>
	<path class="st2" d="M218.2,99c-2.9-0.3-5.8-0.5-9.5-1.8c-5.6-2-9.4-5-11-6.4c-2.5-2.3-4-4.3-5.8-6.7c-2.4-3.3-3.7-5.2-4.3-8
		c-0.4-2.1,0-3,0.3-6.7c0.5-6-0.3-6.6,0-11.6c0.1-1.3,0.2-2.2,2.5-12.2c1.6-7.1,2.4-10.7,2.8-11.9c1.1-3.6,2.5-8.4,5.5-14.1
		c2.3-4.3,4.4-7.1,7.3-11c2.2-2.9,3.9-4.7,7.3-8.2c2.6-2.8,3.8-3.7,5.5-4c0.6-0.1,2.5-0.3,6.7,2.4c2.5,1.7,4.5,3.5,7.3,6.7
		c4,4.6,6.3,7.1,8.6,11.3c1.4,2.6,2.2,5,4,9.8c0.6,1.7,2.4,6.9,4.3,14.1c1.7,6.6,2.6,11.5,2.8,12.5c1,5.7,1.6,9.1,1.5,13.8
		c0,3.8-0.1,6.9-1.4,10.7c-1.2,3.5-2.8,5.8-4.7,8.5c-2.2,3.2-3.9,5.6-7,8c-3.7,2.8-7.3,3.8-9.2,4.3C226.5,99.8,222.2,99.4,218.2,99z
		"/>
	<path class="st2" d="M223.1,94.4c-3,0.4-5.5,0.7-8.6,0s-5.2-2.1-9.5-4.9c-3.8-2.5-5.7-3.8-7.6-6.1c-0.7-0.8-3.2-4-4.6-8.9
		c-1.8-6.2-0.7-11.5-0.3-13.1c0.7-3.4,1.7-4.5,2.8-10c0.4-1.8,0.3-1.6,0.9-5c0.8-4.4,1.4-7.5,2.3-10.8c0.5-1.6,0.5-1.4,3.3-8.9
		c3.2-8.6,3.2-8.9,4.2-10.6c2.4-4.2,4.9-6.8,6.7-8.6c3.4-3.4,5.2-5.1,7.6-5.2c3-0.1,5.3,2.1,7.7,4.3c2.3,2.2,3.6,4.2,6.4,9.1
		c3.3,5.8,4.9,8.7,6.1,11.3c0.6,1.4,2.8,6.6,5.2,17.4c2.7,12.1,4,18.1,3.1,25.4c-0.6,4.8-1.5,10.8-6.1,15.6
		c-3.2,3.4-7.2,5.1-9.5,6.1C231.6,92.3,228,93.8,223.1,94.4z"/>
	<path class="st2" d="M217.9,90.7c0,0-0.2-7,0-13.8c0.1-4.3,0.2-6.5,0.3-7c0.4-1.8,1-3.2,0.3-4.3c-0.6-0.9-1.3-0.6-3.1-1.5
		c-1.8-1-2.8-2.2-4.3-4c-0.9-1.1-2.1-2.8-2.1-2.8c0-0.2,0.5-2.8,1.8-3.1c0.9-0.2,1.9,0.8,3.1,2.1c1.6,1.7,1.9,2.8,2.5,2.8
		c1.1-0.1,1.5-4.5,1.5-4.9c0.6-6.5-1.7-9.8,0.3-11.9c0.6-0.7,2.5-2.1,2.5-2.1c0.6,0.5,1.5,1.4,2.1,2.8c1,2.1,0.7,4.2,0.6,5.2
		c-0.6,5,0.1,10,0,15c-0.1,8.7-0.1,7.6-0.1,7.6c-0.2,3.4-0.6,4.9,0,5.2c1,0.5,4-2.2,5.8-5.2c1-1.6,1.4-2.8,2.8-3.4
		c0.9-0.4,2.3-0.4,3.1,0.3c1.1,1.1,0.4,3.3,0.3,3.7c-0.9,2.8-3.1,3-7,6.4c-2.1,1.8-4.2,3.7-5.2,6.7c-0.5,1.5-0.6,2.7-0.6,4.6
		c-0.1,7.8,0.9,10.4,0.9,16.8c0,3.1-0.2,2.9-0.3,8c0,3.5,0,8,0,8l0,0c0,0-1.1,2.5-2.5,2.8c-1,0.2-2.2-1-2.8-2.1
		c-1-2.2,0.3-4.7,0.6-5.5C220.4,112.8,218.4,110.9,217.9,90.7z"/>
	<path class="st2" d="M61.3,105.7c1.6-0.3,3.3-0.9,6.7-2.1c3.6-1.3,6.3-2.6,7.4-3.2c3.6-1.7,5.3-2.6,6.9-3.9c3.8-3,5.4-7,6.7-10.4
		c0.8-2.2,2.6-7.5,2.4-15.6c-0.1-6,0.9-5.1-1.8-19c-1.6-7.9-4.1-12.2-6.1-18.6c-0.6-2-1.8-5.5-4-9.5c-0.8-1.4-1.9-3.4-3.7-5.8
		c-1.6-2.1-1.6-1.7-5.2-5.8c-2.3-2.6-2.9-3.5-4.6-4.9c-1.6-1.3-3-2.1-3.7-2.4c-1.5-0.8-3.2-1.7-4.9-1.8c-2.2-0.2-4,1.3-7.7,4.3
		c-1.7,1.4-3.3,2.7-5.5,5.2c-0.8,0.9-4,4.6-7.6,11.6c-3.2,6.1-4.9,11.3-5.8,14.1c-1.7,5.4-2.3,9.6-3.7,18c-0.2,1.3-1.1,6.7-1.5,13.8
		c-0.3,5-0.2,7,0.1,9.1c0.7,4.7,2.4,8.1,3,9.2C32,94.5,37,97.9,39,99.3c3.8,2.5,7.1,3.6,10.1,4.6C53.5,105.3,57,106.4,61.3,105.7z"
		/>
	<path class="st2" d="M62.9,99.3c2-0.5,4.8-1.4,7.9-2.8c3.5-1.5,6.2-2.7,8.9-5.2c1.6-1.4,4.7-4.7,6.4-9.8c0.7-2.2,1.2-5,0.6-11.6
		C86,62.8,85.5,59,83.3,48.5c-2-9.5-1.4-7.2-4.3-15c-2-5.5-3-8.3-4.9-14c-0.6-2-1.9-3-6.4-7.9c-4-4.4-7.7-4.7-9.4-4.6
		c-1.9,0-5.1,1.9-7.3,4.6c-4.5,5.5-6.5,8.8-8.6,12.4c-2.1,3.7-4.8,8.7-7,16.2c-1.8,6.1-0.5,2.9-3.1,14c-1.6,6.8-1.2,10.1-1.7,14.1
		c-0.7,5.7-1.2,10,0.5,14.6c2.6,7,8.7,10.6,11.6,12.2C51.1,100.1,59.4,99.7,62.9,99.3"/>
	<path class="st2" d="M59.8,119.2c-1.3-3.3,0.2-5.2,0.9-10.7c0.8-6-0.8-5.5-0.3-14.7c0.2-2.9,0.6-8.2,0.6-8.2l0,0c0,0,0-1.8,0.3-3.1
		c0.2-0.9,0.7-1.6,1.9-2.9c1.9-2.1,3.6-3.7,5.4-5.3c1.4-1.2,2-1.8,3-2.8c2.6-2.8,2.6-3.6,2.5-3.9c-0.2-1.3-2-2.4-3.4-2.1
		c-1.3,0.2-2,1.5-3.1,3.1c-2.2,3.3-5.9,7.5-7,7c-0.8-0.3-0.4-2.7,0-6.4c1.2-12.2-1.1-11.4,0-21.7c0.3-2.8,0.7-5.1-0.6-6.1
		c-1.2-0.9-3.6-0.4-4.6,0.9c-0.8,1.2-0.2,2.6,0.3,4.9c1.1,5.1,0.5,10.4-0.6,10.7c-0.8,0.2-1.4-2.3-4.3-3.7c-0.7-0.3-2.7-1.3-4-0.3
		c-0.9,0.7-1.2,2-0.9,3.1c0.1,0.4,0.4,1,2.8,2.8c2,1.5,2.6,1.5,4,2.8c1.1,0.9,1.7,1.5,2.1,2.5c0.8,1.8,0.2,3.7,0,4.3
		c-0.5,1.8-0.2,12.5,0.6,33.9c0.4,9.8,0.6,10.4-0.1,12.2c-0.5,1.4-1.5,3.8-0.5,6.1c0.2,0.4,0.9,2,2.4,2.5c1.1,0.3,2.5,0,3.1-0.9
		C61.1,121.8,60.2,120.3,59.8,119.2z"/>
	<path class="st2" d="M32.3,121.6c11-1,204.9-1.1,212.5,0l0,0l0,0l3.7,0.3l0,0c0,0,2.2,0.9,2.5,2.1c0.2,1-1,2.2-2.1,2.8
		c-1.7,0.9-3.5,0.5-4.3,0.3c-3.2-0.7-6.6-0.2-9.8-0.9c-11.7-2.4-81.3,0.3-81.3,0.3c-67.4,2.7-113.6-1.7-120.5,0.6
		c-0.5,0.2-3.4,1.3-4.9,0c-0.9-0.8-1.1-2.3-0.6-3.4C28.3,122,31.2,121.7,32.3,121.6z"/>
</g>
<g id="Слой_4">
	<path class="st3" d="M85.9,93.7c-0.6,5.5-1.8,10.5-5.4,14c-14.1,13.7-12,9.8-18.4,12.7c-3.5,1.6-8.3,1.6-12.5,1.5
		c-0.1,0-0.2,0-0.2,0c0.1,0,0.2,0,0.2-0.1v-19.9c0.3-0.1,0.5-0.3,0.7-0.5l15.4-14.9c0.9-0.9,0.9-2.3,0-3.2c-0.9-0.9-2.4-0.9-3.3,0
		L49.6,95.7V56c0-1-0.8-1.9-1.9-1.9c-1.2,0-2.2,1-2.3,2.2v24.2L38,74c-0.4-0.4-1-0.6-1.5-0.6c-0.6,0-1.3,0.3-1.8,0.7
		c-0.8,0.9-0.8,2.3,0.2,3.2l9.9,8.7c0.2,0.2,0.4,0.3,0.6,0.4v35.3c-0.4,0-0.8,0-1.2,0c-8,0-19.1-4.5-25.8-12
		c-6.2-7-6.1-11.1-7.6-23.7c-0.4-3.6,1.2-12.1,2.4-17.3c2.7-11.8,4-18.6,9-31.5c2.8-7.1,12.4-23.9,26.4-26.4
		c1.4-0.2,6.1,0.4,8.7,2.4c1.7,1.3,2.7,2.3,6.2,6.3c2.3,2.7,11.5,11.9,19.4,46.9C87.8,88,86.7,86,85.9,93.7z"/>
	<path class="st4" d="M49.6,121.8L49.6,121.8c-0.1,0.1-0.2,0.1-0.2,0.1C49.5,121.8,49.5,121.8,49.6,121.8z"/>
	<path class="st4" d="M65.7,86.5l-15.4,14.9c-0.2,0.2-0.4,0.4-0.7,0.5v19.9c-0.1,0-0.1,0-0.2,0.1c-1.4-0.1-2.8-0.1-4-0.1V86.4
		c-0.2-0.1-0.4-0.2-0.6-0.4l-9.9-8.7c-1-0.9-1-2.3-0.2-3.2c0.5-0.5,1.1-0.7,1.8-0.7c0.6,0,1.1,0.2,1.5,0.6l7.4,6.5V56.3
		c0.1-1.2,1.1-2.2,2.3-2.2c1.1,0,1.9,0.9,1.9,1.9v39.7l12.8-12.4c0.9-0.9,2.4-0.9,3.3,0C66.6,84.2,66.6,85.6,65.7,86.5z"/>
	<path class="st3" d="M219.2,140.8c0,0.5-0.3,1-0.7,1.4c-0.4,0.4-0.9,0.6-1.4,0.6H14.9c-1.1,0-1.9-0.9-1.9-2c0-0.6,0.2-1.1,0.6-1.4
		c0.3-0.4,0.8-0.6,1.3-0.6H47c-0.4-0.1-0.7-0.3-1-0.6c-0.2-0.3-0.5-0.6-0.6-0.9v0c-0.1-0.2-0.1-0.5-0.1-0.7v-14.9
		c1.2,0,2.5,0.1,4,0.1c0.1,0,0.2,0,0.2,0v15.4c0,0.5-0.1,1.1-0.4,1.5h69c-3.6-0.6-6.4-3.7-6.4-7.5V73.9c0-4.2,3.4-7.6,7.6-7.6h65.1
		c4.2,0,7.6,3.4,7.6,7.6v57.4c0,3.8-2.8,6.9-6.4,7.5h31.5C218.3,138.8,219.2,139.7,219.2,140.8z"/>
	<path class="st3" d="M209.6,73.4c-2.9,3.3-7.8,3.6-11,0.7l-45.9-40.4l-46,40.4c-3.3,2.9-8.2,2.6-11-0.7c-2.8-3.2-2.5-8.1,0.7-11
		l51.1-44.9c0.1-0.1,0.2-0.1,0.3-0.2c0,0,0.1,0,0.1-0.1c0.3-0.3,0.7-0.5,1.1-0.7c0,0,0,0,0,0c0.8-0.4,1.6-0.7,2.5-0.8
		c0.1,0,0.3,0,0.4-0.1c0.1,0,0.2,0,0.2,0c0.3,0,0.7,0,1.1,0c0.1,0,0.2,0,0.2,0c0.1,0,0.3,0,0.4,0.1c0.9,0.1,1.7,0.4,2.5,0.8
		c0,0,0,0,0,0c0.4,0.2,0.7,0.4,1.1,0.7c0,0,0.1,0,0.1,0.1c0.1,0.1,0.2,0.1,0.3,0.2l51.1,44.9C212.1,65.3,212.4,70.2,209.6,73.4z"/>
	<path class="st4" d="M63.5,119.8L63.5,119.8z"/>
	<path class="st3" d="M47,138.8h-1.1c-0.3-0.4-0.4-0.9-0.4-1.5c0.1,0.4,0.3,0.7,0.6,0.9C46.3,138.5,46.6,138.7,47,138.8z"/>
	<path class="st3" d="M49.6,121.8L49.6,121.8c-0.1,0.1-0.2,0.1-0.2,0.1C49.5,121.8,49.5,121.8,49.6,121.8z"/>
	<g>
		<g>
			<path class="st3" d="M30.4,172.6h-1.6c-0.1-0.6-0.2-1.5-0.2-3.5c-1.2,2.7-3.3,3.8-6.7,3.8c-5.8,0-8.5-5-8.5-11.3
				c0-6.4,3.2-11.5,9.3-11.5c4.4,0,7,2.3,7.8,6.3h-1.9c-0.8-2.9-2.5-4.6-5.9-4.6c-4.9,0-7.2,4.2-7.2,9.8c0,5,2,9.6,6.7,9.6
				c5.4,0,6.3-3.7,6.3-8.4v-0.1h-6.2v-1.8h8.2C30.4,161.9,30.4,172.5,30.4,172.6z"/>
			<path class="st3" d="M38.8,162.1v10.5h-2v-22.2h7.3c3.8,0,6.4,1.9,6.4,5.6c0,3.3-2,4.7-3.7,5.2c2.4,0.7,3.4,2.6,3.4,5.7v0.3
				c0,2.1,0,4.1,0.3,5.4h-2c-0.3-0.9-0.4-3.2-0.4-5.3v-0.4c0-3.4-1.2-4.8-5.2-4.8H38.8z M38.8,160.4h4.4c3.2,0,5.3-0.9,5.3-4.3
				c0-2.5-1.6-4-4.6-4h-5.1L38.8,160.4L38.8,160.4z"/>
			<path class="st3" d="M68.5,161.8H58.4v9.1h11.1l-0.3,1.7H56.5v-22.2H69v1.7H58.4v7.9h10.1V161.8L68.5,161.8z"/>
			<path class="st3" d="M86.8,161.8H76.6v9.1h11.1l-0.3,1.7H74.7v-22.2h12.6v1.7H76.6v7.9h10.1v1.8H86.8z"/>
			<path class="st3" d="M92.9,172.6v-22.2h2.7c9.9,16.7,11.1,18.8,11.6,19.8l0,0c-0.2-3.1-0.2-6.6-0.2-10.2v-9.5h1.9v22.2h-2.4
				c-10.5-18-11.2-19.2-11.7-20.2l0,0c0.2,2.9,0.1,6.6,0.1,10.5v9.7L92.9,172.6L92.9,172.6z"/>
			<path class="st3" d="M124.8,150.4h7.1c4.1,0,6.9,2.1,6.9,5.9c0,4.2-2.9,6.3-7.2,6.3h-4.8v10h-2V150.4L124.8,150.4z M126.8,160.9
				h4.8c3.1,0,5.2-1,5.2-4.5c0-2.9-2.1-4.3-5.2-4.3h-4.7L126.8,160.9L126.8,160.9z"/>
			<path class="st3" d="M143.9,150.4h2v20.4h11l-0.3,1.7H144L143.9,150.4L143.9,150.4z"/>
			<path class="st3" d="M163.4,165.2l-2.4,7.4h-2c2.1-6.3,5-15,7.4-22.2h2.4l7.7,22.2h-2.1l-2.5-7.4H163.4z M171.4,163.4
				c-2.1-6.2-3.4-9.6-3.8-11.2h-0.1c-0.6,2.7-1.9,6.1-3.6,11.2H171.4z"/>
			<path class="st3" d="M196.5,166.4c-0.7,3.4-2.9,6.5-7.9,6.5c-6.3,0-8.7-4.9-8.7-11.6c0-5.6,2.6-11.2,8.9-11.2
				c4.7,0,7.1,2.8,7.7,6.6h-2c-0.6-2.9-2.3-4.9-5.7-4.9c-4.7,0-6.7,4.5-6.7,9.5c0,4.9,1.5,9.9,6.7,9.9c3.4,0,5-1.9,5.8-4.8H196.5
				L196.5,166.4z"/>
			<path class="st3" d="M213.9,161.8h-10.1v9.1h11.1l-0.3,1.7h-12.8v-22.2h12.5v1.7h-10.6v7.9h10.1L213.9,161.8L213.9,161.8z"/>
		</g>
	</g>
	<path class="st3" d="M217.1,185.2H14.9c-1.1,0-1.9-0.9-1.9-2l0,0c0-1.1,0.9-2,1.9-2h202.3c1.1,0,2,0.9,2,2l0,0
		C219.1,184.3,218.2,185.2,217.1,185.2z"/>
</g>
</svg>
